<svg id="color_lens_black_24dp" xmlns="http://www.w3.org/2000/svg" width="36" height="36" viewBox="0 0 36 36">
  <path id="Path_39822" data-name="Path 39822" d="M0,0H36V36H0Z" fill="none"/>
  <path id="Path_39823" data-name="Path 39823" d="M16.125,3a13.125,13.125,0,0,0,0,26.25,2.189,2.189,0,0,0,1.619-3.66,2.179,2.179,0,0,1,1.633-3.631h2.581a7.294,7.294,0,0,0,7.292-7.292C29.25,8.221,23.373,3,16.125,3ZM8.1,16.125a2.188,2.188,0,1,1,2.188-2.188A2.185,2.185,0,0,1,8.1,16.125Zm4.375-5.833A2.188,2.188,0,1,1,14.667,8.1,2.185,2.185,0,0,1,12.479,10.292Zm7.292,0A2.188,2.188,0,1,1,21.958,8.1,2.185,2.185,0,0,1,19.771,10.292Zm4.375,5.833a2.188,2.188,0,1,1,2.188-2.188A2.185,2.185,0,0,1,24.146,16.125Z" transform="translate(1.875 1.875)" fill="#a0a0a5"/>
</svg>
