<svg xmlns="http://www.w3.org/2000/svg" xmlns:xlink="http://www.w3.org/1999/xlink" width="112.519" height="121.695" viewBox="0 0 112.519 121.695">
  <defs>
    <clipPath id="clip-path">
      <rect id="Rectangle_123" data-name="Rectangle 123" width="112.519" height="121.695" transform="translate(0 0)" fill="#fff"/>
    </clipPath>
  </defs>
  <g id="Group_41314" data-name="Group 41314" transform="translate(0 0)" clip-path="url(#clip-path)">
    <path id="Path_39841" data-name="Path 39841" d="M45.184,112.524c2.559,2.336,2.541,5.235-.146,7.278-.42.321-.862.613-1.312.893-2.905,1.793-4.985,1.18-6.42-1.873a6.8,6.8,0,0,1-.571-4.851,3.572,3.572,0,0,1,4.226-2.9,26.936,26.936,0,0,1,4.223,1.453" fill="#fff" fill-rule="evenodd"/>
    <path id="Path_39842" data-name="Path 39842" d="M68.75,104.524c1.606,1.956,1.29,4.051-.866,5.247-.338.188-.688.355-1.042.509-2.289.994-3.729.332-4.448-2.023a4.984,4.984,0,0,1,.095-3.57,2.609,2.609,0,0,1,3.358-1.655,19.673,19.673,0,0,1,2.9,1.492" fill="#fff" fill-rule="evenodd"/>
    <path id="Path_39843" data-name="Path 39843" d="M68,74.467c-1.544-1.66-3.318-1.926-4.7-.7-1.54,1.362-1.816,4.3-.529,5.658a4.522,4.522,0,0,0,6.079.143c1.309-1.3,1.011-3.1-.847-5.1" fill="#fff" fill-rule="evenodd"/>
    <path id="Path_39844" data-name="Path 39844" d="M108.711,82.509c2.641-.863,3.887-2.181,3.8-4.412a8,8,0,0,0-.9-3.225c-.847-1.653-2.478-1.787-4.1-1.566a5.5,5.5,0,0,0-4.217,3.23,4.13,4.13,0,0,0,.219,4.749c1.172,1.463,2.84,1.641,4.582,1.413a3.658,3.658,0,0,0,.621-.189" transform="translate(-7.343 4.412)" fill="#fff" fill-rule="evenodd"/>
    <path id="Path_39845" data-name="Path 39845" d="M58.614,48.983c-2.671.195-4.228,1.631-4.127,3.812.117,2.425,2.612,4.849,4.818,4.672a5.341,5.341,0,0,0,4.63-5.491c-.225-2.165-2.1-3.222-5.321-2.993" fill="#fff" fill-rule="evenodd"/>
    <path id="Path_39846" data-name="Path 39846" d="M90.847,55.755c-1.544-1.66-3.318-1.926-4.7-.7-1.54,1.362-1.816,4.3-.529,5.658a4.522,4.522,0,0,0,6.079.143c1.309-1.3,1.011-3.1-.847-5.1" fill="#fff" fill-rule="evenodd"/>
    <path id="Path_39847" data-name="Path 39847" d="M44.82,21.013c1.606,1.956,1.29,4.05-.866,5.246a11.4,11.4,0,0,1-1.042.51c-2.289.994-3.729.332-4.448-2.023a4.984,4.984,0,0,1,.094-3.57,2.61,2.61,0,0,1,3.359-1.655,19.528,19.528,0,0,1,2.9,1.492" fill="#fff" fill-rule="evenodd"/>
    <path id="Path_39848" data-name="Path 39848" d="M4.131,73.4C1.46,73.6-.1,75.036,0,77.217c.117,2.425,2.612,4.85,4.818,4.672A5.341,5.341,0,0,0,9.452,76.4c-.226-2.165-2.1-3.223-5.321-2.993" fill="#fff" fill-rule="evenodd"/>
    <path id="Path_39849" data-name="Path 39849" d="M91.5,9.285c2.641-.863,3.886-2.18,3.805-4.412a8.042,8.042,0,0,0-.906-3.225C93.547,0,91.916-.139,90.289.082a5.5,5.5,0,0,0-4.216,3.23,4.132,4.132,0,0,0,.218,4.749c1.173,1.463,2.84,1.641,4.583,1.412a3.565,3.565,0,0,0,.621-.188" fill="#fff" fill-rule="evenodd"/>
    <path id="Path_39850" data-name="Path 39850" d="M106.108,25.137c2.559,2.336,2.541,5.235-.146,7.278-.421.321-.862.613-1.312.894-2.9,1.792-4.985,1.18-6.42-1.873a6.806,6.806,0,0,1-.571-4.852,3.572,3.572,0,0,1,4.226-2.9,26.937,26.937,0,0,1,4.223,1.453" fill="#fff" fill-rule="evenodd"/>
    <path id="Path_39851" data-name="Path 39851" d="M17.251,5.235c1.163,1.956.934,4.051-.627,5.247a7.925,7.925,0,0,1-.755.509c-1.657.994-2.7.332-3.22-2.024A6.763,6.763,0,0,1,12.717,5.4c.456-1.441,1.348-2.14,2.432-1.655a13.333,13.333,0,0,1,2.1,1.492" fill="#fff" fill-rule="evenodd"/>
    <path id="Path_39852" data-name="Path 39852" d="M23.868,51.078c1.606,1.956,1.291,4.051-.865,5.247a11.531,11.531,0,0,1-1.043.508c-2.289.995-3.729.332-4.448-2.023a4.981,4.981,0,0,1,.1-3.569,2.61,2.61,0,0,1,3.359-1.655,19.663,19.663,0,0,1,2.9,1.492" fill="#fff" fill-rule="evenodd"/>
    <path id="Path_39853" data-name="Path 39853" d="M74,8.347c1.606,1.956,1.291,4.051-.865,5.247-.339.188-.689.355-1.043.509-2.289.994-3.729.332-4.448-2.024a4.981,4.981,0,0,1,.1-3.569A2.61,2.61,0,0,1,71.1,6.855,19.663,19.663,0,0,1,74,8.347" fill="#fff" fill-rule="evenodd"/>
    <path id="Path_39854" data-name="Path 39854" d="M98.117,100.775c1.606,1.956,1.291,4.051-.865,5.247-.339.188-.689.355-1.043.509-2.289.994-3.729.332-4.448-2.024a4.981,4.981,0,0,1,.1-3.569,2.61,2.61,0,0,1,3.359-1.655,19.662,19.662,0,0,1,2.9,1.492" fill="#fff" fill-rule="evenodd"/>
  </g>
</svg>
